<svg width="190" height="190" viewBox="0 0 190 190" fill="none" xmlns="http://www.w3.org/2000/svg">
<g id="history_edu_FILL0_wght100_GRAD0_opsz24 1">
<path id="Vector" d="M65.7083 145.667C64.1844 145.667 62.8798 145.124 61.7945 144.039C60.7093 142.954 60.1667 141.649 60.1667 140.125V126.667H81.5417V98.5625C76.3958 100.014 71.0191 100.113 65.4115 98.8594C59.8038 97.6059 55.2847 95.2639 51.8542 91.8333V79.9583H39.9792L19 58.9792C23.4861 55.4167 28.434 52.6788 33.8438 50.7656C39.2535 48.8524 44.8611 47.8958 50.6667 47.8958C56.1932 47.8958 61.5661 48.7535 66.7854 50.4687C72.0049 52.184 76.9236 54.8229 81.5417 58.3854V42.75H155.958V132.208C155.958 136.035 154.672 139.234 152.099 141.807C149.526 144.38 146.326 145.667 142.5 145.667H65.7083ZM87.0833 126.667H134.583V132.208C134.583 134.451 135.342 136.332 136.859 137.849C138.377 139.366 140.257 140.125 142.5 140.125C144.743 140.125 146.623 139.366 148.141 137.849C149.658 136.332 150.417 134.451 150.417 132.208V48.2917H87.0833V63.3333L129.438 105.687V109.646H125.479L100.938 85.1042L95.5938 90.4479C94.1424 91.8993 92.757 93.0868 91.4375 94.0104C90.1181 94.934 88.6667 95.7917 87.0833 96.5833V126.667ZM42.3542 74.4167H57.3958V89.4583C60.4306 91.3056 63.2014 92.559 65.7083 93.2187C68.2153 93.8785 70.617 94.2083 72.9135 94.2083C76.6864 94.2083 80.1233 93.5486 83.224 92.2292C86.3247 90.9097 89.1945 88.9306 91.8333 86.2917L96.9792 81.1458L82.3333 66.5C77.9765 62.1458 73.0939 58.8802 67.6855 56.7031C62.2771 54.526 56.6042 53.4375 50.6667 53.4375C46.4444 53.4375 42.3212 54.0312 38.2969 55.2187C34.2726 56.4062 30.7431 57.9236 27.7083 59.7708L42.3542 74.4167ZM129.042 132.208H65.7083V140.125H131.813C130.757 139.069 130.031 137.861 129.635 136.499C129.24 135.137 129.042 133.707 129.042 132.208Z" fill="#CCCCCC"/>
</g>
</svg>
