<svg width="175" height="175" viewBox="0 0 175 175" fill="none" xmlns="http://www.w3.org/2000/svg">
<g id="workspace_premium_FILL0_wght100_GRAD0_opsz24 1">
<path id="Vector" d="M72.9166 95.8854L78.3853 77.6562L63.9843 67.4479H82.0312L87.4999 48.8542L92.9687 67.4479H111.016L96.6145 77.6562L102.083 95.8854L87.4999 84.5833L72.9166 95.8854ZM53.2291 153.125V107.552C48.611 103.177 45.026 98.0122 42.4739 92.0573C39.9218 86.1024 38.6458 79.7222 38.6458 72.9167C38.6458 59.3056 43.3853 47.7604 52.8645 38.2812C62.3437 28.8021 73.8888 24.0625 87.4999 24.0625C101.111 24.0625 112.656 28.8021 122.135 38.2812C131.615 47.7604 136.354 59.3056 136.354 72.9167C136.354 79.7222 135.078 86.1024 132.526 92.0573C129.974 98.0122 126.389 103.177 121.771 107.552V153.125L87.4999 143.281L53.2291 153.125ZM87.4999 116.667C99.6527 116.667 109.983 112.413 118.49 103.906C126.996 95.3993 131.25 85.0694 131.25 72.9167C131.25 60.7639 126.996 50.434 118.49 41.9271C109.983 33.4201 99.6527 29.1667 87.4999 29.1667C75.3471 29.1667 65.0173 33.4201 56.5103 41.9271C48.0034 50.434 43.7499 60.7639 43.7499 72.9167C43.7499 85.0694 48.0034 95.3993 56.5103 103.906C65.0173 112.413 75.3471 116.667 87.4999 116.667ZM58.3333 146.198L87.4999 137.812L116.667 146.198V111.927C112.656 115.087 108.16 117.517 103.177 119.219C98.1944 120.92 92.9687 121.771 87.4999 121.771C82.0312 121.771 76.8055 120.92 71.8228 119.219C66.8402 117.517 62.3437 115.087 58.3333 111.927V146.198Z" fill="#CCCCCC"/>
</g>
</svg>
