<svg width="127" height="113" viewBox="0 0 127 113" fill="none" xmlns="http://www.w3.org/2000/svg">
<path id="Vector" d="M26.9792 67.0833C27.9514 67.0833 28.8021 66.7188 29.5312 65.9896C30.2604 65.2604 30.625 64.4097 30.625 63.4375C30.625 62.4653 30.2604 61.6146 29.5312 60.8854C28.8021 60.1562 27.9514 59.7917 26.9792 59.7917C26.0069 59.7917 25.1562 60.1562 24.4271 60.8854C23.6979 61.6146 23.3333 62.4653 23.3333 63.4375C23.3333 64.4097 23.6979 65.2604 24.4271 65.9896C25.1562 66.7188 26.0069 67.0833 26.9792 67.0833ZM26.9792 37.9167C27.9514 37.9167 28.8021 37.5521 29.5312 36.8229C30.2604 36.0938 30.625 35.2431 30.625 34.2708C30.625 33.2986 30.2604 32.4479 29.5312 31.7188C28.8021 30.9896 27.9514 30.625 26.9792 30.625C26.0069 30.625 25.1562 30.9896 24.4271 31.7188C23.6979 32.4479 23.3333 33.2986 23.3333 34.2708C23.3333 35.2431 23.6979 36.0938 24.4271 36.8229C25.1562 37.5521 26.0069 37.9167 26.9792 37.9167ZM42.6562 65.9896H102.448V60.8854H42.6562V65.9896ZM42.6562 36.8229H102.448V31.7188H42.6562V36.8229ZM43.75 112.292V97.7083H10.9375C7.77778 97.7083 5.16493 96.6753 3.09896 94.6094C1.03299 92.5434 0 89.9306 0 86.7708V10.9375C0 7.77778 1.03299 5.16493 3.09896 3.09896C5.16493 1.03299 7.77778 0 10.9375 0H115.938C119.097 0 121.71 1.03299 123.776 3.09896C125.842 5.16493 126.875 7.77778 126.875 10.9375V86.7708C126.875 89.9306 125.842 92.5434 123.776 94.6094C121.71 96.6753 119.097 97.7083 115.938 97.7083H83.125V112.292H43.75ZM10.9375 92.6042H115.938C117.396 92.6042 118.733 91.9965 119.948 90.7812C121.163 89.566 121.771 88.2292 121.771 86.7708V10.9375C121.771 9.47917 121.163 8.14236 119.948 6.92708C118.733 5.71181 117.396 5.10417 115.938 5.10417H10.9375C9.47917 5.10417 8.14236 5.71181 6.92708 6.92708C5.71181 8.14236 5.10417 9.47917 5.10417 10.9375V86.7708C5.10417 88.2292 5.71181 89.566 6.92708 90.7812C8.14236 91.9965 9.47917 92.6042 10.9375 92.6042Z" fill="#CCCCCC"/>
</svg>
