<svg width="108" height="26" viewBox="0 0 108 26" fill="none" xmlns="http://www.w3.org/2000/svg">
<path fill-rule="evenodd" clip-rule="evenodd" d="M8.75854 12.9074L12.4758 9.38763L16.0676 12.9074L12.4758 16.4277L8.75854 12.9074Z" fill="#BBE0F8"/>
<path fill-rule="evenodd" clip-rule="evenodd" d="M0.378174 12.9074L12.4757 24.7036L16.0675 21.1833L7.6242 12.9074L11.7828 8.77031L8.191 5.24997L0.378174 12.9074Z" fill="#00ACEC"/>
<path fill-rule="evenodd" clip-rule="evenodd" d="M24.3854 12.9073L12.3497 1.11224L8.75854 4.69438L17.2018 12.9073L13.0432 17.0456L16.635 20.6271L24.3854 12.9073Z" fill="#111111"/>
<path fill-rule="evenodd" clip-rule="evenodd" d="M100.313 18.7745L102.959 25.3827H108L97.0992 0.0624008L89.9607 17.5538L89.9452 17.5484C89.8247 16.2199 89.3945 15.0634 88.6559 14.0808C88.5304 14.0808 88.4674 14.019 88.4049 13.8336C87.3968 12.9073 85.6321 11.8575 83.1752 10.8076C81.4105 10.1285 80.0871 9.32579 79.4566 8.64607C78.9535 7.96636 78.574 7.10248 78.574 6.1138C78.574 4.94035 79.0159 3.7669 79.7088 3.0878C80.4017 2.34689 81.4729 1.91435 82.7332 1.91435C83.868 1.91435 84.8131 2.22331 85.6315 2.84063C86.5141 3.45855 87.144 4.38483 87.5847 5.49648L88.4043 5.00275L89.2857 4.38483C88.9705 3.89109 88.7196 3.45855 88.4043 3.026C87.8241 2.27926 87.1212 1.63231 86.3244 1.11165C84.9052 0.383048 83.3272 0.00165542 81.7251 0C79.4567 0 77.5034 0.741506 75.9909 2.03793C74.6645 3.52519 73.8177 5.61946 73.8517 7.65073C73.8733 8.95261 74.2572 10.2284 75.1095 11.3013C75.9909 12.2894 77.4404 13.2163 79.4566 14.0808H79.5197C83.3637 15.5626 85.3169 17.4157 85.3169 19.4537C85.3169 20.7507 84.7495 21.9235 83.9311 22.665C83.0485 23.5295 82.0403 23.9621 80.7176 23.9621C79.6569 23.9586 78.6229 23.6352 77.7562 23.0358C76.9991 22.4803 76.2437 21.6152 75.6763 20.6271L73.7868 21.9859C73.9123 22.0477 73.9753 22.2325 74.0377 22.4179C74.9204 23.5295 75.9909 24.5182 77.0634 25.0119C78.3237 25.6299 79.898 26 81.6627 26C83.8347 26 85.6958 25.3385 87.199 24.1559L87.2194 24.1656L86.7027 25.3827H88.9711L91.6815 18.7745H100.313ZM43.7779 13.2169H33.4586V25.3833H28.7957V0.494339H44.8008V2.40929H33.4586V11.4873H44.1073L44.1685 12.2639L44.6117 11.1783L49.1486 0.0624008L58.6637 22.1713V0.494339H74.4166V2.40929H63.3897V11.4873H73.597V13.3399H63.3897V23.5295H74.4166V25.3827H55.0718L52.4251 18.7745H43.6666L41.0199 25.3827H38.8145L43.7779 13.2169ZM44.6117 17.2303H44.3595L44.6117 16.613L48.0143 8.21413L51.6692 17.2303H44.6117ZM95.9656 8.21413L92.2483 17.2303H99.6198L95.9656 8.21413Z" fill="#111111"/>
</svg>
