<svg width="48" height="48" viewBox="0 0 48 48" fill="none" xmlns="http://www.w3.org/2000/svg">
<g id="book_FILL0_wght400_GRAD0_opsz48 1">
<path id="Vector" d="M11 44C10.2 44 9.5 43.7 8.9 43.1C8.3 42.5 8 41.8 8 41V7C8 6.2 8.3 5.5 8.9 4.9C9.5 4.3 10.2 4 11 4H37C37.8 4 38.5 4.3 39.1 4.9C39.7 5.5 40 6.2 40 7V41C40 41.8 39.7 42.5 39.1 43.1C38.5 43.7 37.8 44 37 44H11ZM11 41H37V7H34V19.05C34 19.3167 33.875 19.525 33.625 19.675C33.375 19.825 33.1167 19.8333 32.85 19.7L29.85 17.95C29.6134 17.8167 29.371 17.75 29.1226 17.75C28.8742 17.75 28.6333 17.8167 28.4 17.95L25.4 19.7C25.1333 19.8333 24.8833 19.825 24.65 19.675C24.4167 19.525 24.3 19.3167 24.3 19.05V7H11V41ZM24.3 19.05C24.3 19.3167 24.4167 19.525 24.65 19.675C24.8833 19.825 25.1333 19.8333 25.4 19.7L28.4 17.95C28.6366 17.8167 28.879 17.75 29.1274 17.75C29.3758 17.75 29.6333 17.8167 29.9 17.95L32.85 19.7C33.1167 19.8333 33.375 19.825 33.625 19.675C33.875 19.525 34 19.3167 34 19.05C34 19.363 33.875 19.5913 33.625 19.7348C33.375 19.8783 33.1167 19.8667 32.85 19.7L29.85 18C29.6134 17.8333 29.371 17.75 29.1226 17.75C28.8742 17.75 28.6333 17.8333 28.4 18L25.4 19.7C25.1333 19.8667 24.8833 19.8783 24.65 19.7348C24.4167 19.5913 24.3 19.363 24.3 19.05Z" fill="black"/>
</g>
</svg>
