<svg width="48" height="48" viewBox="0 0 48 48" fill="none" xmlns="http://www.w3.org/2000/svg">
<g id="note_stack_FILL0_wght400_GRAD0_opsz48 1">
<path id="Vector" d="M13.9999 41V17C13.9999 16.1645 14.2916 15.4557 14.8749 14.8734C15.4583 14.2911 16.1666 14 16.9999 14H40.9999C41.8249 14 42.5312 14.2937 43.1187 14.8812C43.7062 15.4687 43.9999 16.175 43.9999 17V34L33.9999 44H16.9999C16.1749 44 15.4687 43.7062 14.8812 43.1187C14.2937 42.5312 13.9999 41.825 13.9999 41ZM4.04994 11.75C3.88328 10.9166 4.04161 10.175 4.52494 9.52497C5.00828 8.87497 5.66661 8.46664 6.49994 8.29997L30.1499 4.09997C30.9833 3.9333 31.7249 4.0833 32.3749 4.54997C33.0249 5.01664 33.4333 5.66664 33.5999 6.49997L34.3999 11H31.3999L30.6999 7.04997L7.04994 11.2L10.9999 33.7V37.85C10.3333 37.7833 9.74994 37.5333 9.24994 37.1C8.74994 36.6666 8.43328 36.1 8.29994 35.4L4.04994 11.75ZM16.9999 17V41H32.3999V33.9C32.3999 33.475 32.5437 33.1187 32.8312 32.8312C33.1187 32.5437 33.4749 32.4 33.8999 32.4H40.9999V17H16.9999Z" fill="black"/>
</g>
</svg>
