<svg width="48" height="48" viewBox="0 0 48 48" fill="none" xmlns="http://www.w3.org/2000/svg">
<g id="library_books_FILL0_wght400_GRAD0_opsz48 1">
<path id="Vector" d="M18.65 27H26.9C27.325 27 27.6812 26.8554 27.9688 26.5663C28.2563 26.2771 28.4 25.9187 28.4 25.4913C28.4 25.0638 28.2563 24.7083 27.9688 24.425C27.6812 24.1417 27.325 24 26.9 24H18.65C18.225 24 17.8688 24.1446 17.5813 24.4338C17.2937 24.7229 17.15 25.0813 17.15 25.5087C17.15 25.9362 17.2937 26.2917 17.5813 26.575C17.8688 26.8583 18.225 27 18.65 27ZM18.65 22.5H35.4C35.825 22.5 36.1813 22.3554 36.4688 22.0663C36.7563 21.7771 36.9 21.4187 36.9 20.9913C36.9 20.5638 36.7563 20.2083 36.4688 19.925C36.1813 19.6417 35.825 19.5 35.4 19.5H18.65C18.225 19.5 17.8688 19.6446 17.5813 19.9337C17.2937 20.2229 17.15 20.5813 17.15 21.0087C17.15 21.4362 17.2937 21.7917 17.5813 22.075C17.8688 22.3583 18.225 22.5 18.65 22.5ZM18.65 18H35.4C35.825 18 36.1813 17.8554 36.4688 17.5663C36.7563 17.2771 36.9 16.9187 36.9 16.4913C36.9 16.0638 36.7563 15.7083 36.4688 15.425C36.1813 15.1417 35.825 15 35.4 15H18.65C18.225 15 17.8688 15.1446 17.5813 15.4337C17.2937 15.7229 17.15 16.0813 17.15 16.5087C17.15 16.9362 17.2937 17.2917 17.5813 17.575C17.8688 17.8583 18.225 18 18.65 18ZM13 38C12.2 38 11.5 37.7 10.9 37.1C10.3 36.5 10 35.8 10 35V7C10 6.2 10.3 5.5 10.9 4.9C11.5 4.3 12.2 4 13 4H41C41.8 4 42.5 4.3 43.1 4.9C43.7 5.5 44 6.2 44 7V35C44 35.8 43.7 36.5 43.1 37.1C42.5 37.7 41.8 38 41 38H13ZM13 35H41V7H13V35ZM7 44C6.2 44 5.5 43.7 4.9 43.1C4.3 42.5 4 41.8 4 41V11.5C4 11.075 4.14458 10.7188 4.43375 10.4313C4.72295 10.1438 5.08128 10 5.50875 10C5.93625 10 6.29167 10.1438 6.575 10.4313C6.85833 10.7188 7 11.075 7 11.5V41H36.5C36.925 41 37.2812 41.1446 37.5688 41.4338C37.8563 41.7229 38 42.0813 38 42.5088C38 42.9362 37.8563 43.2917 37.5688 43.575C37.2812 43.8583 36.925 44 36.5 44H7Z" fill="black"/>
</g>
</svg>
