<svg width="21" height="18" viewBox="0 0 21 18" fill="none" xmlns="http://www.w3.org/2000/svg">
<path id="Vector" d="M16.1375 17.6642L14.5462 16.0729L15.9837 14.6104H12V12.3354H15.9837L14.5462 10.8729L16.1375 9.28165L20.3288 13.4729L16.1375 17.6642ZM2.27503 14.6104C1.64531 14.6104 1.10872 14.3887 0.66525 13.9452C0.22175 13.5018 0 12.9652 0 12.3354V2.61045C0 1.98073 0.22175 1.44414 0.66525 1.00067C1.10872 0.557191 1.64531 0.335449 2.27503 0.335449H15C15.6297 0.335449 16.1663 0.557191 16.6098 1.00067C17.0533 1.44414 17.275 1.98073 17.275 2.61045V7.45935C17.0844 7.41805 16.8949 7.38707 16.7063 7.36642C16.5177 7.34577 16.3281 7.33545 16.1375 7.33545C15.9469 7.33545 15.7574 7.34261 15.5688 7.35692C15.3802 7.37122 15.1906 7.39903 15 7.44035V4.136L8.53753 8.64035L2.27503 4.161V12.3354H10.0989C10.0576 12.534 10.0308 12.7276 10.0185 12.9161C10.0062 13.1047 10 13.2903 10 13.4729C10 13.6556 10.0094 13.8422 10.028 14.0327C10.0467 14.2233 10.0767 14.4159 10.118 14.6104H2.27503ZM4.012 2.61045L8.53753 5.85555L13.1951 2.61045H4.012Z" fill="#F7F7F7"/>
</svg>
